<svg width="48" height="48" viewBox="0 0 48 48" fill="none" xmlns="http://www.w3.org/2000/svg">
<circle cx="24" cy="24" r="24" fill="white"/>
<path d="M34.5 20.8125C34.5 27.375 24.7697 32.6869 24.3553 32.9062C24.2461 32.965 24.124 32.9958 24 32.9958C23.876 32.9958 23.7539 32.965 23.6447 32.9062C23.2303 32.6869 13.5 27.375 13.5 20.8125C13.5017 19.2715 14.1147 17.794 15.2044 16.7044C16.294 15.6147 17.7715 15.0017 19.3125 15C21.2484 15 22.9434 15.8325 24 17.2397C25.0566 15.8325 26.7516 15 28.6875 15C30.2285 15.0017 31.706 15.6147 32.7956 16.7044C33.8853 17.794 34.4983 19.2715 34.5 20.8125Z" fill="#202020"/>
</svg>
