<svg width="48" height="48" viewBox="0 0 48 48" fill="none" xmlns="http://www.w3.org/2000/svg">
<circle opacity="0.15" cx="24" cy="24" r="24" fill="#333333"/>
<g opacity="0.8">
<path d="M20.6099 16.8C20.5015 16.9004 20.414 17.0213 20.3524 17.1555C20.2907 17.2898 20.2561 17.4349 20.2505 17.5826C20.245 17.7302 20.2685 17.8775 20.3199 18.016C20.3712 18.1546 20.4494 18.2817 20.5499 18.39L25.8404 24L20.5499 29.61C20.4494 29.7183 20.3713 29.8454 20.3199 29.9839C20.2686 30.1225 20.245 30.2698 20.2506 30.4174C20.2561 30.5651 20.2907 30.7102 20.3524 30.8444C20.414 30.9787 20.5015 31.0995 20.6099 31.2C20.7182 31.3004 20.8453 31.3786 20.9838 31.4299C21.1223 31.4813 21.2696 31.5049 21.4173 31.4993C21.5649 31.4937 21.71 31.4591 21.8443 31.3975C21.9786 31.3358 22.0994 31.2483 22.1999 31.14L28.1999 24.765C28.3928 24.557 28.5 24.2837 28.5 24C28.5 23.7163 28.3928 23.443 28.1999 23.235L22.1999 16.86C22.0994 16.7516 21.9786 16.6641 21.8443 16.6025C21.71 16.5408 21.5649 16.5062 21.4173 16.5006C21.2696 16.4951 21.1223 16.5186 20.9838 16.57C20.8453 16.6214 20.7182 16.6995 20.6099 16.8Z" fill="#F1F1F1"/>
</g>
</svg>
