<svg width="48" height="48" viewBox="0 0 48 48" fill="none" xmlns="http://www.w3.org/2000/svg">
<g clip-path="url(#clip0_93_36)">
<path d="M16.9286 20.6428V19.8571C16.9286 17.9817 17.6737 16.183 18.9998 14.8569C20.326 13.5307 22.1246 12.7857 24.0001 12.7857C25.8755 12.7857 27.6742 13.5307 29.0003 14.8569C30.3265 16.183 31.0715 17.9817 31.0715 19.8571V20.6428M33.9944 22.4028C34.0212 22.1835 34.0015 21.961 33.9365 21.7498C33.8715 21.5386 33.7627 21.3434 33.6172 21.1771C33.47 21.0095 33.2887 20.8752 33.0855 20.783C32.8823 20.6909 32.6618 20.6431 32.4386 20.6428H15.5615C15.3384 20.6431 15.1179 20.6909 14.9147 20.783C14.7115 20.8752 14.5302 21.0095 14.3829 21.1771C14.2374 21.3434 14.1286 21.5386 14.0636 21.7498C13.9986 21.961 13.9789 22.1835 14.0058 22.4028L15.1844 31.8314C15.2307 32.2147 15.4165 32.5675 15.7063 32.8226C15.9961 33.0776 16.3697 33.2171 16.7558 33.2143H31.2758C31.6619 33.2171 32.0354 33.0776 32.3253 32.8226C32.6151 32.5675 32.8009 32.2147 32.8472 31.8314L33.9944 22.4028Z" stroke="#202020" stroke-width="1.71429" stroke-linecap="round" stroke-linejoin="round"/>
</g>
<defs>
<clipPath id="clip0_93_36">
<rect width="22" height="22" fill="white" transform="translate(13 12)"/>
</clipPath>
</defs>
</svg>
