<svg width="328" height="245" viewBox="0 0 328 245" fill="none" xmlns="http://www.w3.org/2000/svg">
<g filter="url(#filter0_d_146_495)">
<rect x="4" width="320" height="237" fill="#D9D9D9"/>
</g>
<mask id="path-2-outside-1_146_495" maskUnits="userSpaceOnUse" x="69" y="51" width="190" height="106" fill="black">
<rect fill="white" x="69" y="51" width="190" height="106"/>
<path d="M74.9205 56.9091H102.784L126.42 114.545H127.511L151.148 56.9091H179.011V150H157.102V92.8182H156.33L133.966 149.409H119.966L97.6023 92.5H96.8295V150H74.9205V56.9091ZM230.864 56.9091H253.045V121.273C253.015 127.303 251.576 132.576 248.727 137.091C245.879 141.576 241.939 145.061 236.909 147.545C231.909 150.03 226.121 151.273 219.545 151.273C213.727 151.273 208.439 150.258 203.682 148.227C198.955 146.197 195.182 143.045 192.364 138.773C189.576 134.5 188.197 129.03 188.227 122.364H210.636C210.727 124.758 211.182 126.803 212 128.5C212.848 130.167 214.015 131.424 215.5 132.273C216.985 133.121 218.758 133.545 220.818 133.545C222.97 133.545 224.788 133.091 226.273 132.182C227.758 131.242 228.879 129.864 229.636 128.045C230.424 126.227 230.833 123.97 230.864 121.273V56.9091Z"/>
</mask>
<path d="M74.9205 56.9091H102.784L126.42 114.545H127.511L151.148 56.9091H179.011V150H157.102V92.8182H156.33L133.966 149.409H119.966L97.6023 92.5H96.8295V150H74.9205V56.9091ZM230.864 56.9091H253.045V121.273C253.015 127.303 251.576 132.576 248.727 137.091C245.879 141.576 241.939 145.061 236.909 147.545C231.909 150.03 226.121 151.273 219.545 151.273C213.727 151.273 208.439 150.258 203.682 148.227C198.955 146.197 195.182 143.045 192.364 138.773C189.576 134.5 188.197 129.03 188.227 122.364H210.636C210.727 124.758 211.182 126.803 212 128.5C212.848 130.167 214.015 131.424 215.5 132.273C216.985 133.121 218.758 133.545 220.818 133.545C222.97 133.545 224.788 133.091 226.273 132.182C227.758 131.242 228.879 129.864 229.636 128.045C230.424 126.227 230.833 123.97 230.864 121.273V56.9091Z" fill="white"/>
<path d="M74.9205 56.9091V51.9091H69.9205V56.9091H74.9205ZM102.784 56.9091L107.41 55.0119L106.138 51.9091H102.784V56.9091ZM126.42 114.545L121.794 116.443L123.067 119.545H126.42V114.545ZM127.511 114.545V119.545H130.865L132.137 116.443L127.511 114.545ZM151.148 56.9091V51.9091H147.794L146.522 55.0119L151.148 56.9091ZM179.011 56.9091H184.011V51.9091H179.011V56.9091ZM179.011 150V155H184.011V150H179.011ZM157.102 150H152.102V155H157.102V150ZM157.102 92.8182H162.102V87.8182H157.102V92.8182ZM156.33 92.8182V87.8182H152.929L151.679 90.9806L156.33 92.8182ZM133.966 149.409V154.409H137.366L138.616 151.247L133.966 149.409ZM119.966 149.409L115.312 151.238L116.559 154.409H119.966V149.409ZM97.6023 92.5L102.256 90.6713L101.01 87.5H97.6023V92.5ZM96.8295 92.5V87.5H91.8295V92.5H96.8295ZM96.8295 150V155H101.83V150H96.8295ZM74.9205 150H69.9205V155H74.9205V150ZM74.9205 61.9091H102.784V51.9091H74.9205V61.9091ZM98.158 58.8062L121.794 116.443L131.047 112.648L107.41 55.0119L98.158 58.8062ZM126.42 119.545H127.511V109.545H126.42V119.545ZM132.137 116.443L155.774 58.8062L146.522 55.0119L122.885 112.648L132.137 116.443ZM151.148 61.9091H179.011V51.9091H151.148V61.9091ZM174.011 56.9091V150H184.011V56.9091H174.011ZM179.011 145H157.102V155H179.011V145ZM162.102 150V92.8182H152.102V150H162.102ZM157.102 87.8182H156.33V97.8182H157.102V87.8182ZM151.679 90.9806L129.316 147.571L138.616 151.247L160.98 94.6558L151.679 90.9806ZM133.966 144.409H119.966V154.409H133.966V144.409ZM124.619 147.58L102.256 90.6713L92.9487 94.3287L115.312 151.238L124.619 147.58ZM97.6023 87.5H96.8295V97.5H97.6023V87.5ZM91.8295 92.5V150H101.83V92.5H91.8295ZM96.8295 145H74.9205V155H96.8295V145ZM79.9205 150V56.9091H69.9205V150H79.9205ZM230.864 56.9091V51.9091H225.864V56.9091H230.864ZM253.045 56.9091H258.045V51.9091H253.045V56.9091ZM253.045 121.273L258.045 121.298L258.045 121.285V121.273H253.045ZM248.727 137.091L252.948 139.772L252.952 139.765L252.956 139.759L248.727 137.091ZM236.909 147.545L234.695 143.063L234.684 143.068L236.909 147.545ZM203.682 148.227L201.709 152.821L201.719 152.826L203.682 148.227ZM192.364 138.773L188.176 141.505L188.183 141.515L188.19 141.526L192.364 138.773ZM188.227 122.364V117.364H183.25L183.227 122.341L188.227 122.364ZM210.636 122.364L215.633 122.174L215.45 117.364H210.636V122.364ZM212 128.5L207.496 130.671L207.52 130.72L207.544 130.768L212 128.5ZM215.5 132.273L217.981 127.932L217.981 127.932L215.5 132.273ZM226.273 132.182L228.883 136.446L228.915 136.427L228.946 136.407L226.273 132.182ZM229.636 128.045L225.049 126.057L225.035 126.09L225.021 126.122L229.636 128.045ZM230.864 121.273L235.863 121.329L235.864 121.301V121.273H230.864ZM230.864 61.9091H253.045V51.9091H230.864V61.9091ZM248.045 56.9091V121.273H258.045V56.9091H248.045ZM248.046 121.248C248.019 126.467 246.785 130.798 244.498 134.423L252.956 139.759C256.366 134.353 258.011 128.139 258.045 121.298L248.046 121.248ZM244.507 134.41C242.177 138.078 238.952 140.96 234.695 143.063L239.124 152.028C244.927 149.162 249.58 145.074 252.948 139.772L244.507 134.41ZM234.684 143.068C230.488 145.153 225.486 146.273 219.545 146.273V156.273C226.757 156.273 233.33 154.907 239.134 152.023L234.684 143.068ZM219.545 146.273C214.318 146.273 209.709 145.363 205.644 143.629L201.719 152.826C207.17 155.152 213.137 156.273 219.545 156.273V146.273ZM205.655 143.633C201.82 141.986 198.815 139.472 196.537 136.02L188.19 141.526C191.549 146.618 196.089 150.408 201.709 152.821L205.655 143.633ZM196.551 136.04C194.439 132.804 193.2 128.371 193.227 122.386L183.227 122.341C183.194 129.69 184.712 136.196 188.176 141.505L196.551 136.04ZM188.227 127.364H210.636V117.364H188.227V127.364ZM205.64 122.553C205.75 125.455 206.31 128.211 207.496 130.671L216.504 126.329C216.054 125.395 215.704 124.06 215.633 122.174L205.64 122.553ZM207.544 130.768C208.792 133.219 210.609 135.237 213.019 136.614L217.981 127.932C217.421 127.612 216.905 127.114 216.456 126.232L207.544 130.768ZM213.019 136.614C215.401 137.975 218.066 138.545 220.818 138.545V128.545C219.45 128.545 218.569 128.268 217.981 127.932L213.019 136.614ZM220.818 138.545C223.675 138.545 226.447 137.938 228.883 136.446L223.662 127.918C223.129 128.244 222.265 128.545 220.818 128.545V138.545ZM228.946 136.407C231.403 134.853 233.149 132.616 234.252 129.969L225.021 126.122C224.609 127.111 224.112 127.632 223.6 127.956L228.946 136.407ZM234.224 130.033C235.353 127.428 235.828 124.465 235.863 121.329L225.864 121.217C225.839 123.474 225.495 125.027 225.049 126.057L234.224 130.033ZM235.864 121.273V56.9091H225.864V121.273H235.864Z" fill="#303030" mask="url(#path-2-outside-1_146_495)"/>
<path d="M87.7376 183.557V196H80.7915V166.909H87.5103V178.188H87.7518C88.2442 176.843 89.0491 175.792 90.1665 175.034C91.2934 174.277 92.6713 173.898 94.3001 173.898C95.8342 173.898 97.1694 174.239 98.3058 174.92C99.4421 175.593 100.323 176.545 100.948 177.776C101.582 179.007 101.895 180.446 101.885 182.094V196H94.9393V183.457C94.9487 182.245 94.6457 181.298 94.0302 180.616C93.4147 179.935 92.5482 179.594 91.4308 179.594C90.7016 179.594 90.0576 179.755 89.4989 180.077C88.9497 180.389 88.5188 180.839 88.2063 181.426C87.9033 182.013 87.747 182.723 87.7376 183.557ZM133.679 181.455C133.679 184.655 133.063 187.368 131.832 189.594C130.601 191.819 128.934 193.509 126.832 194.665C124.739 195.82 122.391 196.398 119.787 196.398C117.173 196.398 114.82 195.815 112.727 194.651C110.634 193.486 108.972 191.795 107.741 189.58C106.52 187.354 105.909 184.646 105.909 181.455C105.909 178.254 106.52 175.541 107.741 173.315C108.972 171.09 110.634 169.4 112.727 168.244C114.82 167.089 117.173 166.511 119.787 166.511C122.391 166.511 124.739 167.089 126.832 168.244C128.934 169.4 130.601 171.09 131.832 173.315C133.063 175.541 133.679 178.254 133.679 181.455ZM126.491 181.455C126.491 179.561 126.221 177.96 125.681 176.653C125.151 175.347 124.384 174.357 123.38 173.685C122.386 173.012 121.188 172.676 119.787 172.676C118.395 172.676 117.197 173.012 116.193 173.685C115.189 174.357 114.417 175.347 113.877 176.653C113.347 177.96 113.082 179.561 113.082 181.455C113.082 183.348 113.347 184.949 113.877 186.256C114.417 187.562 115.189 188.552 116.193 189.224C117.197 189.897 118.395 190.233 119.787 190.233C121.188 190.233 122.386 189.897 123.38 189.224C124.384 188.552 125.151 187.562 125.681 186.256C126.221 184.949 126.491 183.348 126.491 181.455ZM156.832 180.844L150.454 181.014C150.388 180.56 150.208 180.157 149.914 179.807C149.621 179.447 149.237 179.168 148.764 178.969C148.3 178.76 147.76 178.656 147.145 178.656C146.34 178.656 145.653 178.817 145.085 179.139C144.526 179.461 144.252 179.897 144.261 180.446C144.252 180.872 144.422 181.241 144.772 181.554C145.132 181.866 145.771 182.117 146.69 182.307L150.895 183.102C153.073 183.519 154.692 184.21 155.752 185.176C156.823 186.142 157.362 187.42 157.372 189.011C157.362 190.508 156.917 191.81 156.037 192.918C155.165 194.026 153.972 194.887 152.457 195.503C150.942 196.109 149.209 196.412 147.258 196.412C144.143 196.412 141.685 195.773 139.886 194.494C138.096 193.206 137.074 191.483 136.818 189.324L143.679 189.153C143.83 189.949 144.223 190.555 144.858 190.972C145.492 191.388 146.302 191.597 147.287 191.597C148.177 191.597 148.901 191.431 149.46 191.099C150.019 190.768 150.303 190.328 150.312 189.778C150.303 189.286 150.085 188.893 149.659 188.599C149.233 188.296 148.565 188.06 147.656 187.889L143.849 187.165C141.662 186.767 140.033 186.033 138.963 184.963C137.893 183.884 137.362 182.51 137.372 180.844C137.362 179.385 137.751 178.14 138.537 177.108C139.323 176.066 140.44 175.271 141.889 174.722C143.338 174.172 145.047 173.898 147.017 173.898C149.971 173.898 152.301 174.518 154.005 175.759C155.71 176.99 156.652 178.685 156.832 180.844ZM156.871 172.619V166.909H181.459V172.619H172.638V196H165.706V172.619H156.871ZM191.928 196.412C189.646 196.412 187.676 195.962 186.019 195.062C184.371 194.153 183.102 192.861 182.212 191.185C181.331 189.499 180.891 187.496 180.891 185.176C180.891 182.922 181.336 180.953 182.226 179.267C183.116 177.572 184.371 176.256 185.99 175.318C187.61 174.371 189.518 173.898 191.715 173.898C193.268 173.898 194.688 174.139 195.976 174.622C197.264 175.105 198.377 175.82 199.314 176.767C200.252 177.714 200.981 178.884 201.502 180.276C202.023 181.658 202.283 183.244 202.283 185.034V186.767H183.32V182.733H195.82C195.81 181.994 195.635 181.336 195.294 180.759C194.953 180.181 194.485 179.731 193.888 179.409C193.301 179.078 192.624 178.912 191.857 178.912C191.08 178.912 190.384 179.087 189.769 179.438C189.153 179.778 188.666 180.247 188.306 180.844C187.946 181.431 187.757 182.098 187.738 182.847V186.952C187.738 187.842 187.913 188.623 188.263 189.295C188.614 189.958 189.111 190.474 189.755 190.844C190.399 191.213 191.166 191.398 192.056 191.398C192.671 191.398 193.23 191.312 193.732 191.142C194.234 190.972 194.665 190.721 195.025 190.389C195.384 190.058 195.654 189.651 195.834 189.168L202.212 189.352C201.947 190.782 201.364 192.027 200.465 193.088C199.575 194.139 198.405 194.958 196.956 195.545C195.507 196.123 193.831 196.412 191.928 196.412ZM205.831 196V166.909H212.862V190.29H224.964V196H205.831ZM247.652 180.844L241.275 181.014C241.208 180.56 241.028 180.157 240.735 179.807C240.441 179.447 240.058 179.168 239.584 178.969C239.12 178.76 238.58 178.656 237.965 178.656C237.16 178.656 236.473 178.817 235.905 179.139C235.346 179.461 235.072 179.897 235.081 180.446C235.072 180.872 235.242 181.241 235.593 181.554C235.953 181.866 236.592 182.117 237.51 182.307L241.715 183.102C243.893 183.519 245.512 184.21 246.573 185.176C247.643 186.142 248.183 187.42 248.192 189.011C248.183 190.508 247.738 191.81 246.857 192.918C245.986 194.026 244.792 194.887 243.277 195.503C241.762 196.109 240.029 196.412 238.078 196.412C234.963 196.412 232.506 195.773 230.706 194.494C228.917 193.206 227.894 191.483 227.638 189.324L234.499 189.153C234.65 189.949 235.043 190.555 235.678 190.972C236.312 191.388 237.122 191.597 238.107 191.597C238.997 191.597 239.721 191.431 240.28 191.099C240.839 190.768 241.123 190.328 241.132 189.778C241.123 189.286 240.905 188.893 240.479 188.599C240.053 188.296 239.385 188.06 238.476 187.889L234.669 187.165C232.482 186.767 230.853 186.033 229.783 184.963C228.713 183.884 228.183 182.51 228.192 180.844C228.183 179.385 228.571 178.14 229.357 177.108C230.143 176.066 231.26 175.271 232.709 174.722C234.158 174.172 235.867 173.898 237.837 173.898C240.792 173.898 243.121 174.518 244.826 175.759C246.53 176.99 247.472 178.685 247.652 180.844Z" fill="#303030"/>
<defs>
<filter id="filter0_d_146_495" x="0" y="0" width="328" height="245" filterUnits="userSpaceOnUse" color-interpolation-filters="sRGB">
<feFlood flood-opacity="0" result="BackgroundImageFix"/>
<feColorMatrix in="SourceAlpha" type="matrix" values="0 0 0 0 0 0 0 0 0 0 0 0 0 0 0 0 0 0 127 0" result="hardAlpha"/>
<feOffset dy="4"/>
<feGaussianBlur stdDeviation="2"/>
<feComposite in2="hardAlpha" operator="out"/>
<feColorMatrix type="matrix" values="0 0 0 0 0 0 0 0 0 0 0 0 0 0 0 0 0 0 1 0"/>
<feBlend mode="normal" in2="BackgroundImageFix" result="effect1_dropShadow_146_495"/>
<feBlend mode="normal" in="SourceGraphic" in2="effect1_dropShadow_146_495" result="shape"/>
</filter>
</defs>
</svg>
