<svg width="48" height="48" viewBox="0 0 48 48" fill="none" xmlns="http://www.w3.org/2000/svg">
<circle cx="24" cy="24" r="24" fill="white"/>
<path d="M28.6875 15C26.7516 15 25.0566 15.8325 24 17.2397C22.9434 15.8325 21.2484 15 19.3125 15C17.7715 15.0017 16.294 15.6147 15.2044 16.7044C14.1147 17.794 13.5017 19.2715 13.5 20.8125C13.5 27.375 23.2303 32.6869 23.6447 32.9062C23.7539 32.965 23.876 32.9958 24 32.9958C24.124 32.9958 24.2461 32.965 24.3553 32.9062C24.7697 32.6869 34.5 27.375 34.5 20.8125C34.4983 19.2715 33.8853 17.794 32.7956 16.7044C31.706 15.6147 30.2285 15.0017 28.6875 15ZM24 31.3875C22.2881 30.39 15 25.8459 15 20.8125C15.0015 19.6692 15.4563 18.5732 16.2647 17.7647C17.0732 16.9563 18.1692 16.5015 19.3125 16.5C21.1359 16.5 22.6669 17.4713 23.3062 19.0312C23.3628 19.1688 23.4589 19.2865 23.5824 19.3693C23.7059 19.4521 23.8513 19.4963 24 19.4963C24.1487 19.4963 24.2941 19.4521 24.4176 19.3693C24.5411 19.2865 24.6372 19.1688 24.6937 19.0312C25.3331 17.4684 26.8641 16.5 28.6875 16.5C29.8308 16.5015 30.9268 16.9563 31.7353 17.7647C32.5437 18.5732 32.9985 19.6692 33 20.8125C33 25.8384 25.71 30.3891 24 31.3875Z" fill="#1E1E1E"/>
</svg>
