<svg width="48" height="48" viewBox="0 0 48 48" fill="none" xmlns="http://www.w3.org/2000/svg">
<path fill-rule="evenodd" clip-rule="evenodd" d="M24.0001 13.25C22.7403 13.25 21.5321 13.7504 20.6413 14.6412C19.7505 15.532 19.2501 16.7402 19.2501 18C19.2501 19.2598 19.7505 20.468 20.6413 21.3588C21.5321 22.2496 22.7403 22.75 24.0001 22.75C25.2598 22.75 26.468 22.2496 27.3588 21.3588C28.2496 20.468 28.7501 19.2598 28.7501 18C28.7501 16.7402 28.2496 15.532 27.3588 14.6412C26.468 13.7504 25.2598 13.25 24.0001 13.25ZM20.7501 18C20.7501 17.138 21.0925 16.3114 21.702 15.7019C22.3115 15.0924 23.1381 14.75 24.0001 14.75C24.862 14.75 25.6887 15.0924 26.2982 15.7019C26.9076 16.3114 27.2501 17.138 27.2501 18C27.2501 18.862 26.9076 19.6886 26.2982 20.2981C25.6887 20.9076 24.862 21.25 24.0001 21.25C23.1381 21.25 22.3115 20.9076 21.702 20.2981C21.0925 19.6886 20.7501 18.862 20.7501 18ZM24.0001 24.25C21.6871 24.25 19.5551 24.776 17.9761 25.664C16.4201 26.54 15.2501 27.866 15.2501 29.5V29.602C15.2491 30.764 15.2481 32.222 16.5271 33.264C17.1561 33.776 18.0371 34.141 19.2271 34.381C20.4191 34.623 21.9741 34.75 24.0001 34.75C26.0261 34.75 27.5801 34.623 28.7741 34.381C29.9641 34.141 30.8441 33.776 31.4741 33.264C32.7531 32.222 32.7511 30.764 32.7501 29.602V29.5C32.7501 27.866 31.5801 26.54 30.0251 25.664C28.4451 24.776 26.3141 24.25 24.0001 24.25ZM16.7501 29.5C16.7501 28.649 17.3721 27.725 18.7111 26.972C20.0271 26.232 21.8951 25.75 24.0011 25.75C26.1051 25.75 27.9731 26.232 29.2891 26.972C30.6291 27.725 31.2501 28.649 31.2501 29.5C31.2501 30.808 31.2101 31.544 30.5261 32.1C30.1561 32.402 29.5361 32.697 28.4761 32.911C27.4191 33.125 25.9741 33.25 24.0001 33.25C22.0261 33.25 20.5801 33.125 19.5241 32.911C18.4641 32.697 17.8441 32.402 17.4741 32.101C16.7901 31.544 16.7501 30.808 16.7501 29.5Z" fill="#1E1E1E"/>
</svg>
